<svg xmlns="http://www.w3.org/2000/svg" viewBox="0 0 500 500" fill="none">
  <path d="M70 380 L180 130 L290 380 L255 380 L235 330 L125 330 L105 380 Z" fill="#111111"/>
  <path d="M140 295 L220 295 L180 195 Z" fill="#ffffff"/>
  <path d="M40 200 L55 110 L100 145 L80 165 L150 250 L130 270 L60 185 L40 200 Z" fill="#e63030"/>
  <path d="M310 130 L400 130 C455 130 480 175 480 255 C480 335 455 380 400 380 L310 380 Z M345 165 L345 345 L395 345 C430 345 445 320 445 255 C445 190 430 165 395 165 Z" fill="#111111"/>
</svg>
